<?xml version="1.0" standalone="no"?><!DOCTYPE svg PUBLIC "-//W3C//DTD SVG 1.1//EN" "http://www.w3.org/Graphics/SVG/1.1/DTD/svg11.dtd"><svg t="1555406331993" class="icon" style="" viewBox="0 0 1792 1024" version="1.1" xmlns="http://www.w3.org/2000/svg" p-id="774" xmlns:xlink="http://www.w3.org/1999/xlink" width="350" height="200"><defs><style type="text/css"></style></defs><path d="M100.721778 946.915556l-26.168889-66.247112-26.282667 66.275556h52.451556z m23.04 58.794666l-16.696889-42.581333h-65.137778L25.031111 1005.710222H4.778667l60.956444-153.685333h21.589333l60.017778 153.685333h-23.580444z m45.795555 0v-153.685333h21.816889v137.386667H260.551111v16.298666H169.557333z m113.408 0v-153.685333h21.816889v137.386667h69.148445v16.298666H282.965333z m180.593778 0v-153.685333h21.788445v153.685333h-21.788445z m61.354667 0v-153.685333h21.390222l77.368889 118.670222v-118.670222h18.688v153.685333h-21.276445l-77.482666-118.698666v118.698666h-18.688z m224.426666 0v-153.685333h21.788445v137.386667h69.176889v16.298666h-90.993778z m175.274667 3.84c-21.333333 0-38.485333-7.395556-51.456-22.186666-12.970667-14.791111-19.484444-34.304-19.484444-58.595556 0-24.462222 6.542222-44.003556 19.598222-58.624 13.027556-14.648889 30.464-21.959111 52.280889-21.959111 21.731556 0 39.139556 7.281778 52.224 21.902222 13.084444 14.592 19.626667 34.104889 19.626666 58.453333 0 24.860444-6.542222 44.572444-19.626666 59.164445-13.084444 14.563556-30.805333 21.845333-53.191111 21.845333z m0.284445-16.298666c15.729778 0 27.875556-5.688889 36.465777-16.981334 8.590222-11.320889 12.885333-27.306667 12.885334-47.928889 0-19.996444-4.323556-35.669333-12.942223-46.933333-8.618667-11.292444-20.536889-16.924444-35.754666-16.924444-15.303111 0-27.249778 5.660444-35.84 16.981333-8.590222 11.320889-12.856889 27.022222-12.856889 47.189333 0 20.081778 4.266667 35.84 12.771555 47.36 8.504889 11.491556 20.280889 17.237333 35.271112 17.237334z m218.510222 8.305777c-18.631111 5.319111-34.844444 7.964444-48.696889 7.964445-24.462222 0-43.178667-6.940444-56.234667-20.849778-13.056-13.937778-19.569778-33.848889-19.569778-59.818667 0-25.457778 6.599111-45.283556 19.825778-59.448889 13.226667-14.165333 31.772444-21.219556 55.665778-21.219555 15.644444 0 31.914667 2.304 48.810667 6.940444v20.138667c-21.191111-7.196444-37.432889-10.808889-48.696889-10.808889-16.64 0-29.525333 5.688889-38.684445 16.952889-9.187556 11.264-13.767111 27.164444-13.767111 47.644444 0 20.309333 4.920889 36.067556 14.734222 47.303112 9.841778 11.264 23.608889 16.896 41.329778 16.896 7.281778 0 15.132444-1.28 23.580445-3.84v-50.062223h21.703111v62.208z m38.115555 4.152889v-153.685333h21.788445v153.685333h-21.788445z m91.477334 3.84c-10.325333 0-23.495111-2.275556-39.537778-6.769778v-21.589333c17.294222 8.021333 31.516444 12.060444 42.666667 12.060445 8.561778 0 15.473778-2.275556 20.707555-6.769778a22.300444 22.300444 0 0 0 7.850667-17.749334 23.608889 23.608889 0 0 0-5.148445-15.36c-3.413333-4.238222-9.756444-8.931556-18.944-14.136888l-10.609777-6.115556c-13.084444-7.480889-22.300444-14.506667-27.676445-21.134222a35.555556 35.555556 0 0 1-8.049778-23.096889c0-11.861333 4.295111-21.617778 12.885334-29.240889 8.590222-7.651556 19.512889-11.463111 32.824889-11.463111 11.832889 0 24.32 1.962667 37.489777 5.916444v19.911111c-16.213333-6.343111-28.302222-9.528889-36.238222-9.528888-7.566222 0-13.795556 1.991111-18.716444 6.001777a19.598222 19.598222 0 0 0-1.991111 28.757334c3.640889 3.982222 10.211556 8.675556 19.768888 14.136889l11.008 6.257777c13.283556 7.537778 22.556444 14.648889 27.818667 21.361778 5.262222 6.712889 7.907556 14.791111 7.907556 24.177778 0 13.368889-4.949333 24.120889-14.791111 32.227555-9.898667 8.078222-22.954667 12.145778-39.224889 12.145778z m120.974222-3.84v-137.386666h-54.499556v-16.298667h130.844445v16.298667h-54.528v137.386666h-21.816889z m97.848889 0v-153.685333h21.788444v153.685333h-21.816889z m127.175111 3.84c-23.893333 0-42.325333-7.025778-55.324445-21.048889-13.027556-13.994667-19.541333-33.848889-19.541333-59.534222 0-25.6 6.627556-45.511111 19.911111-59.619555 13.226667-14.108444 31.914667-21.162667 56.007111-21.162667 13.767111 0 29.895111 2.247111 48.384 6.741333v20.451556c-21.048889-7.281778-37.262222-10.894222-48.696889-10.894222-16.696889 0-29.582222 5.632-38.741333 16.924444-9.130667 11.264-13.710222 27.192889-13.710222 47.786667 0 19.569778 4.892444 35.015111 14.648889 46.364444 9.756444 11.292444 23.096889 16.952889 39.992889 16.952889 14.506667 0 30.094222-4.465778 46.705777-13.368889v18.659556a106.666667 106.666667 0 0 1-49.635555 11.747555z m111.445333 0c-10.325333 0-23.523556-2.275556-39.566222-6.769778v-21.589333c17.294222 8.021333 31.516444 12.060444 42.666667 12.060445 8.590222 0 15.502222-2.275556 20.707555-6.769778a22.300444 22.300444 0 0 0 7.850667-17.749334 23.608889 23.608889 0 0 0-5.12-15.36c-3.441778-4.238222-9.756444-8.931556-18.972445-14.136888l-10.581333-6.115556c-13.084444-7.480889-22.328889-14.506667-27.676444-21.134222a35.555556 35.555556 0 0 1-8.049778-23.096889c0-11.861333 4.266667-21.617778 12.885333-29.240889 8.561778-7.651556 19.512889-11.463111 32.796445-11.463111 11.832889 0 24.348444 1.962667 37.489777 5.916444v19.911111c-16.213333-6.343111-28.273778-9.528889-36.238222-9.528888-7.537778 0-13.767111 1.991111-18.688 6.001777a19.598222 19.598222 0 0 0-1.991111 28.757334c3.612444 3.982222 10.183111 8.675556 19.740445 14.136889l11.008 6.257777c13.283556 7.537778 22.584889 14.648889 27.847111 21.361778 5.262222 6.712889 7.879111 14.791111 7.879111 24.177778 0 13.368889-4.920889 24.120889-14.791111 32.227555-9.870222 8.078222-22.926222 12.145778-39.196445 12.145778z" fill="#b5bcc1" p-id="775"></path><path d="M280.433778 16.583111l-249.742222 712.334222h179.256888l72.817778-231.708444h207.445334l74.353777 231.708444h177.692445L493.368889 16.583111H280.405333z m105.671111 155.790222L472.177778 440.035556h-170.666667l84.565333-267.690667zM916.764444 15.815111V728.945778H1095.111111l0.142222-57.173334V15.815111zM1469.354667 18.147556v531.911111h270.051555v178.887111H1385.955556a95.089778 95.089778 0 0 1-95.089778-95.118222V18.147556h178.488889z" fill="#b5bcc1" p-id="776"></path></svg>