<?xml version="1.0" encoding="UTF-8"?>
<svg width="63px" height="36px" viewBox="0 0 63 36" version="1.1" xmlns="http://www.w3.org/2000/svg" xmlns:xlink="http://www.w3.org/1999/xlink">
    <!-- Generator: Sketch 53.2 (72643) - https://sketchapp.com -->
    <title>Group 6</title>
    <desc>Created with Sketch.</desc>
    <g id="二级页面方案二" stroke="none" stroke-width="1" fill="none" fill-rule="evenodd">
        <g id="Group" transform="translate(-1.000000, -1.000000)" fill="#439DF7">
            <g id="Group-7" transform="translate(0.210213, 0.339574)">
                <g id="Group-6" transform="translate(0.000000, 0.592715)">
                    <path d="M4.33076875,33.3581032 L3.41078342,31.0289341 L2.48714736,33.3581032 L4.33076875,33.3581032 Z M5.14123201,35.4244195 L4.55346361,33.927618 L2.2644525,33.927618 L1.66938263,35.4244195 L0.957489225,35.4244195 L3.10047091,30.0213311 L3.85982388,30.0213311 L5.96994895,35.4244195 L5.14123201,35.4244195 Z M6.75120633,35.4244195 L6.75120633,30.0213311 L7.51786077,30.0213311 L7.51786077,34.851254 L9.94925055,34.851254 L9.94925055,35.4244195 L6.75120633,35.4244195 Z M10.7378094,35.4244195 L10.7378094,30.0213311 L11.5044638,30.0213311 L11.5044638,34.851254 L13.9358536,34.851254 L13.9358536,35.4244195 L10.7378094,35.4244195 Z M17.0864383,35.4244195 L17.0864383,30.0213311 L17.8530927,30.0213311 L17.8530927,35.4244195 L17.0864383,35.4244195 Z M19.2440229,35.4244195 L19.2440229,30.0213311 L19.9960744,30.0213311 L22.7158723,34.1941217 L22.7158723,30.0213311 L23.3730047,30.0213311 L23.3730047,35.4244195 L22.6246039,35.4244195 L19.9011553,31.2516289 L19.9011553,35.4244195 L19.2440229,35.4244195 Z M27.1332622,35.4244195 L27.1332622,30.0213311 L27.8999166,30.0213311 L27.8999166,34.851254 L30.3313064,34.851254 L30.3313064,35.4244195 L27.1332622,35.4244195 Z M33.2957035,35.5594967 C32.5460821,35.5594967 31.9431083,35.2996886 31.4867641,34.7800647 C31.0304199,34.2604408 30.8022512,33.5735009 30.8022512,32.7192245 C30.8022512,31.8600805 31.0316368,31.1731407 31.4904149,30.6583844 C31.9491929,30.1436281 32.5619019,29.8862539 33.3285602,29.8862539 C34.0927846,29.8862539 34.7048851,30.1430197 35.1648801,30.656559 C35.624875,31.1700984 35.8548691,31.8552129 35.8548691,32.7119231 C35.8548691,33.5856701 35.624875,34.2786945 35.1648801,34.7910169 C34.7048851,35.3033393 34.0818325,35.5594967 33.2957035,35.5594967 Z M33.3066557,34.9863312 C33.8591365,34.9863312 34.2862682,34.7873682 34.5880639,34.389436 C34.8898595,33.9915039 35.0407551,33.4299047 35.0407551,32.7046216 C35.0407551,32.0012431 34.8892511,31.4512044 34.5862385,31.0544892 C34.2832259,30.657774 33.864004,30.4594193 33.3285602,30.4594193 C32.7906824,30.4594193 32.3708521,30.6583824 32.0690564,31.0563146 C31.7672608,31.4542467 31.6163652,32.0073276 31.6163652,32.7155738 C31.6163652,33.4213862 31.7660439,33.9762924 32.0654057,34.3803092 C32.3647675,34.7843259 32.7785134,34.9863312 33.3066557,34.9863312 Z M40.9878031,35.2783901 C40.3331012,35.4657954 39.7623753,35.5594967 39.2756081,35.5594967 C38.4164641,35.5594967 37.757513,35.3148999 37.2987349,34.8256989 C36.8399569,34.3364979 36.6105713,33.6355637 36.6105713,32.7228753 C36.6105713,31.8272237 36.8429991,31.1305487 37.3078618,30.6328293 C37.7727244,30.1351098 38.4249826,29.8862539 39.2646559,29.8862539 C39.8147028,29.8862539 40.3866457,29.9677861 40.9805016,30.1308531 L40.9805016,30.8390958 C40.2357478,30.5859769 39.6650219,30.4594193 39.2683067,30.4594193 C38.6841861,30.4594193 38.230891,30.657774 37.9084077,31.0544892 C37.5859245,31.4512044 37.4246853,32.0097614 37.4246853,32.7301768 C37.4246853,33.4432906 37.597485,33.9975884 37.9430897,34.3930867 C38.2886944,34.7885851 38.7730205,34.9863312 39.3960824,34.9863312 C39.6516352,34.9863312 39.9278714,34.941306 40.2247994,34.851254 L40.2247994,33.0915996 L40.9878031,33.0915996 L40.9878031,35.2783901 Z M42.327623,35.4244195 L42.327623,30.0213311 L43.0942774,30.0213311 L43.0942774,35.4244195 L42.327623,35.4244195 Z M45.5439209,35.5594967 C45.1812793,35.5594967 44.7176406,35.4803982 44.1529907,35.3221989 L44.1529907,34.5628459 C44.7614496,34.8451709 45.2615954,34.9863312 45.6534429,34.9863312 C45.9552386,34.9863312 46.19801,34.9072328 46.3817646,34.7490334 C46.5655192,34.5908341 46.6573952,34.3827443 46.6573952,34.1247577 C46.6573952,33.913014 46.5971586,33.7329128 46.4766838,33.5844488 C46.3562089,33.4359849 46.1341247,33.2704865 45.8104245,33.0879488 L45.4380495,32.8725554 C44.9780546,32.6097012 44.6537508,32.3620621 44.4651285,32.1296308 C44.2765063,31.8971995 44.1821965,31.6264393 44.1821965,31.3173421 C44.1821965,30.9011562 44.3330921,30.558599 44.6348877,30.2896601 C44.9366834,30.0207213 45.3212237,29.8862539 45.7885201,29.8862539 C46.204706,29.8862539 46.6440068,29.9556171 47.1064356,30.0943458 L47.1064356,30.795287 C46.536918,30.5713741 46.1122201,30.4594193 45.8323289,30.4594193 C45.5670408,30.4594193 45.3479989,30.5299995 45.1751966,30.671162 C45.0023942,30.8123245 44.9159944,30.9899918 44.9159944,31.2041694 C44.9159944,31.3842732 44.9792731,31.5436871 45.1058326,31.6824157 C45.2323921,31.8211443 45.463603,31.9866427 45.7994723,32.1789157 L46.1864503,32.3979598 C46.6537468,32.6632479 46.9798759,32.9139293 47.1648474,33.1500113 C47.3498189,33.3860934 47.4423033,33.669631 47.4423033,34.0006327 C47.4423033,34.470363 47.2688951,34.8476019 46.9220735,35.1323607 C46.5752519,35.4171194 46.1158723,35.5594967 45.5439209,35.5594967 Z M49.7970276,35.4244195 L49.7970276,30.5944965 L47.8803915,30.5944965 L47.8803915,30.0213311 L52.4803181,30.0213311 L52.4803181,30.5944965 L50.563682,30.5944965 L50.563682,35.4244195 L49.7970276,35.4244195 Z M53.2360204,35.4244195 L53.2360204,30.0213311 L54.0026748,30.0213311 L54.0026748,35.4244195 L53.2360204,35.4244195 Z M57.7081713,35.5594967 C56.8684979,35.5594967 56.2198904,35.3130745 55.7623293,34.8202228 C55.3047682,34.327371 55.075991,33.6294791 55.075991,32.726526 C55.075991,31.8260068 55.3090273,31.1275064 55.7751069,30.6310039 C56.2411864,30.1345014 56.8977038,29.8862539 57.7446786,29.8862539 C58.2290119,29.8862539 58.7960872,29.9653523 59.4459213,30.1235517 L59.4459213,30.8427465 C58.7060352,30.5871938 58.1353093,30.4594193 57.7337264,30.4594193 C57.147172,30.4594193 56.6932684,30.657774 56.3720021,31.0544892 C56.0507358,31.4512044 55.890105,32.0109783 55.890105,32.7338275 C55.890105,33.422603 56.0616879,33.9659487 56.4048587,34.3638809 C56.7480296,34.761813 57.2165359,34.9607761 57.8103918,34.9607761 C58.3214974,34.9607761 58.8691022,34.803796 59.4532228,34.4898312 L59.4532228,35.1469636 C58.9202127,35.421987 58.3385347,35.5594967 57.7081713,35.5594967 Z M61.6254104,35.5594967 C61.2627688,35.5594967 60.7991301,35.4803982 60.2344802,35.3221989 L60.2344802,34.5628459 C60.8429391,34.8451709 61.3430849,34.9863312 61.7349324,34.9863312 C62.0367281,34.9863312 62.2794995,34.9072328 62.4632541,34.7490334 C62.6470087,34.5908341 62.7388847,34.3827443 62.7388847,34.1247577 C62.7388847,33.913014 62.6786481,33.7329128 62.5581733,33.5844488 C62.4376984,33.4359849 62.2156142,33.2704865 61.891914,33.0879488 L61.519539,32.8725554 C61.0595441,32.6097012 60.7352403,32.3620621 60.546618,32.1296308 C60.3579958,31.8971995 60.263686,31.6264393 60.263686,31.3173421 C60.263686,30.9011562 60.4145816,30.558599 60.7163772,30.2896601 C61.0181729,30.0207213 61.4027132,29.8862539 61.8700096,29.8862539 C62.2861955,29.8862539 62.7254963,29.9556171 63.1879251,30.0943458 L63.1879251,30.795287 C62.6184075,30.5713741 62.1937096,30.4594193 61.9138185,30.4594193 C61.6485304,30.4594193 61.4294884,30.5299995 61.2566861,30.671162 C61.0838837,30.8123245 60.9974839,30.9899918 60.9974839,31.2041694 C60.9974839,31.3842732 61.0607626,31.5436871 61.1873221,31.6824157 C61.3138816,31.8211443 61.5450925,31.9866427 61.8809618,32.1789157 L62.2679398,32.3979598 C62.7352363,32.6632479 63.0613654,32.9139293 63.2463369,33.1500113 C63.4313084,33.3860934 63.5237928,33.669631 63.5237928,34.0006327 C63.5237928,34.470363 63.3503846,34.8476019 63.003563,35.1323607 C62.6567414,35.4171194 62.1973618,35.5594967 61.6254104,35.5594967 Z" id="ALLINLOGISTICS" fill-rule="nonzero"></path>
                    <path d="M10.6485527,0.650822368 L1.8692834,25.6940825 L8.17125606,25.6940825 L10.7310384,17.5481123 L18.0238615,17.5481123 L20.6381798,25.6940825 L26.8852756,25.6940825 L18.133956,0.650822368 L10.6485527,0.650822368 Z M14.3634751,6.12759757 L17.3905625,15.5391433 L11.3912645,15.5391433 L14.3634751,6.12759757 Z" id="Fill-1"></path>
                    <polygon id="Fill-2" points="33.0190729 0.623213531 33.0190729 2.65979132 33.0190729 23.6851136 33.0204363 25.6940825 39.288324 25.6940825 39.2937776 23.6851136 39.2937776 2.65979132 39.2937776 0.623213531"></polygon>
                    <path d="M52.4466957,0.705869617 L52.4466957,19.4052326 L61.9410679,19.4052326 L61.9410679,25.694253 L49.5150462,25.694253 C47.6686626,25.694253 46.171991,24.1975813 46.171991,22.3511977 L46.171991,0.705869617 L52.4466957,0.705869617 Z" id="Fill-3"></path>
                </g>
            </g>
        </g>
    </g>
</svg>