<?xml version="1.0" encoding="UTF-8"?>
<svg width="210px" height="50px" viewBox="0 0 210 50" version="1.1" xmlns="http://www.w3.org/2000/svg" xmlns:xlink="http://www.w3.org/1999/xlink">
    <!-- Generator: Sketch 53.2 (72643) - https://sketchapp.com -->
    <title>Group 22</title>
    <desc>Created with Sketch.</desc>
    <defs>
        <path d="M105,34 L101,42 L97,34 L2,34 C0.8954305,34 1.3527075e-16,33.1045695 0,32 L0,2 C-1.3527075e-16,0.8954305 0.8954305,2.02906125e-16 2,0 L200,0 C201.104569,-2.02906125e-16 202,0.8954305 202,2 L202,32 C202,33.1045695 201.104569,34 200,34 L105,34 Z" id="path-1"></path>
        <filter x="-3.5%" y="-11.9%" width="106.9%" height="133.3%" filterUnits="objectBoundingBox" id="filter-2">
            <feOffset dx="0" dy="2" in="SourceAlpha" result="shadowOffsetOuter1"></feOffset>
            <feGaussianBlur stdDeviation="2" in="shadowOffsetOuter1" result="shadowBlurOuter1"></feGaussianBlur>
            <feComposite in="shadowBlurOuter1" in2="SourceAlpha" operator="out" result="shadowBlurOuter1"></feComposite>
            <feColorMatrix values="0 0 0 0 0   0 0 0 0 0   0 0 0 0 0  0 0 0 0.1 0" type="matrix" in="shadowBlurOuter1"></feColorMatrix>
        </filter>
    </defs>
    <g id="二级页面方案二" stroke="none" stroke-width="1" fill="none" fill-rule="evenodd">
        <g id="二级页面-企业愿景" transform="translate(-792.000000, -1918.000000)">
            <g id="Group-15" transform="translate(360.000000, 1814.000000)">
                <g id="Group-8">
                    <g id="Group-22" transform="translate(436.000000, 106.000000)">
                        <g id="Combined-Shape">
                            <use fill="black" fill-opacity="1" filter="url(#filter-2)" xlink:href="#path-1"></use>
                            <path stroke="#E4E4E4" stroke-width="1" d="M101,40.881966 L104.690983,33.5 L200,33.5 C200.828427,33.5 201.5,32.8284271 201.5,32 L201.5,2 C201.5,1.17157288 200.828427,0.5 200,0.5 L2,0.5 C1.17157288,0.5 0.5,1.17157288 0.5,2 L0.5,32 C0.5,32.8284271 1.17157288,33.5 2,33.5 L97.309017,33.5 L101,40.881966 Z" stroke-linejoin="square" fill="#FFFFFF" fill-rule="evenodd"></path>
                        </g>
                        <path d="M15.824,10.562 L16.86,10.562 L16.86,14.888 L22.054,14.888 L22.054,15.868 L16.86,15.868 L16.86,21.86 L23.244,21.86 L23.244,22.84 L10.784,22.84 L10.784,21.86 L15.824,21.86 L15.824,10.562 Z M30.034,12.606 C29.782,13.012 29.53,13.39 29.25,13.754 L36.362,13.754 C36.32,14.986 36.278,16.078 36.25,17.03 L37.44,17.03 L37.44,17.968 L36.208,17.968 C36.152,18.99 36.11,19.816 36.068,20.46 L37.216,20.46 L37.216,21.328 L35.998,21.328 C35.956,21.72 35.914,21.958 35.886,22.07 C35.746,22.518 35.48,22.854 35.088,23.078 C34.696,23.274 34.136,23.372 33.38,23.372 C33.03,23.372 32.624,23.386 32.162,23.386 L31.868,22.462 C32.372,22.49 32.834,22.518 33.254,22.518 C33.632,22.518 33.968,22.476 34.276,22.406 C34.584,22.308 34.808,22.098 34.948,21.776 C34.976,21.706 35.004,21.552 35.032,21.328 L28.368,21.328 C28.592,20.208 28.788,19.088 28.928,17.968 L27.528,17.968 L27.528,17.03 L29.026,17.03 C29.138,15.952 29.208,14.86 29.236,13.768 C28.942,14.146 28.634,14.496 28.312,14.818 L27.668,14.048 C28.62,13.138 29.39,11.948 29.992,10.464 L31,10.674 C30.86,11.024 30.706,11.36 30.552,11.668 L37.02,11.668 L37.02,12.606 L30.034,12.606 Z M29.88,17.968 C29.768,18.864 29.642,19.704 29.488,20.46 L35.116,20.46 C35.158,19.83 35.2,19.004 35.256,17.968 L29.88,17.968 Z M35.298,17.03 C35.326,16.302 35.354,15.504 35.382,14.65 L30.146,14.65 C30.104,15.49 30.048,16.288 29.978,17.03 L35.298,17.03 Z M32.022,14.888 C32.722,15.336 33.31,15.798 33.786,16.26 L33.142,16.904 C32.722,16.456 32.134,15.994 31.392,15.504 L32.022,14.888 Z M31.896,18.136 C32.596,18.64 33.17,19.144 33.646,19.648 L32.988,20.292 C32.568,19.816 31.994,19.298 31.266,18.752 L31.896,18.136 Z M25.624,10.8 C26.464,11.36 27.178,11.934 27.766,12.522 L27.052,13.25 C26.534,12.69 25.82,12.102 24.896,11.486 L25.624,10.8 Z M25.4,14.202 C26.24,14.79 26.954,15.392 27.542,15.98 L26.828,16.694 C26.31,16.134 25.596,15.546 24.672,14.902 L25.4,14.202 Z M26.842,18.304 L27.71,18.64 C27.122,20.264 26.45,21.79 25.722,23.218 L24.784,22.812 C25.568,21.342 26.254,19.844 26.842,18.304 Z M42.186,15.98 L40.352,15.98 L40.352,17.66 C40.296,19.998 39.946,21.86 39.274,23.26 L38.588,22.532 C39.092,21.356 39.372,19.732 39.428,17.66 L39.428,11.696 C41.024,11.654 42.452,11.304 43.74,10.646 L44.244,11.556 C43.068,12.116 41.78,12.438 40.352,12.536 L40.352,15.014 L44.454,15.014 L44.454,15.98 L43.194,15.98 L43.194,23.372 L42.186,23.372 L42.186,15.98 Z M46.148,10.478 L47.142,10.632 C47.058,11.388 46.946,12.088 46.82,12.732 L51.048,12.732 L51.048,13.376 C50.81,14.58 50.488,15.77 50.096,16.946 L49.13,16.666 C49.494,15.798 49.802,14.804 50.054,13.698 L46.596,13.698 C46.204,15.182 45.7,16.386 45.056,17.282 L44.272,16.722 C45.252,15.224 45.868,13.138 46.148,10.478 Z M47.268,14.748 L48.234,14.748 C48.234,15.63 48.192,16.442 48.108,17.198 C48.752,19.466 49.872,21.272 51.454,22.616 L50.796,23.386 C49.494,22.168 48.5,20.67 47.828,18.906 L47.716,19.368 C47.268,21.02 46.246,22.378 44.65,23.442 L44.02,22.658 C45.392,21.734 46.288,20.586 46.736,19.2 C47.086,18.038 47.268,16.554 47.268,14.748 Z M59.98,16.736 L59.98,18.64 L62.038,18.64 L62.038,16.736 L59.98,16.736 Z M59.98,19.55 L59.98,21.692 L62.038,21.692 L62.038,19.55 L59.98,19.55 Z M59.98,22.616 L59.98,23.372 L59.042,23.372 L59.042,15.77 C58.762,16.358 58.454,16.89 58.146,17.352 L57.488,16.75 L57.544,16.638 L57.096,16.638 L57.096,22.168 C57.096,22.924 56.732,23.316 56.018,23.316 L54.744,23.316 L54.534,22.378 C54.94,22.42 55.318,22.448 55.682,22.448 C55.99,22.448 56.144,22.266 56.144,21.93 L56.144,16.862 C55.444,19.158 54.478,20.95 53.26,22.224 L52.532,21.552 C53.764,20.208 54.702,18.57 55.346,16.638 L52.952,16.638 C53.274,15.154 53.512,13.838 53.652,12.69 L54.604,12.802 C54.422,13.922 54.24,14.888 54.044,15.728 L56.144,15.728 L56.144,12.186 L52.966,12.186 L52.966,11.248 L58.104,11.248 L58.104,12.186 L57.096,12.186 L57.096,15.728 L58.02,15.728 C58.734,14.244 59.28,12.522 59.644,10.534 L60.596,10.786 C60.428,11.57 60.26,12.312 60.064,12.984 L62.136,12.984 C61.94,12.242 61.716,11.514 61.45,10.814 L62.402,10.548 C62.668,11.374 62.878,12.13 63.046,12.816 L62.598,12.984 L65.146,12.984 L65.146,13.908 L62.99,13.908 L62.99,15.812 L64.866,15.812 L64.866,16.736 L62.99,16.736 L62.99,18.64 L64.894,18.64 L64.894,19.55 L62.99,19.55 L62.99,21.692 L65.342,21.692 L65.342,22.616 L59.98,22.616 Z M62.038,13.908 L59.98,13.908 L59.98,15.812 L62.038,15.812 L62.038,13.908 Z M70.788,13.544 L72.594,13.544 L72.594,10.618 L73.63,10.618 L73.63,13.544 L76.136,13.544 L76.136,10.618 L77.158,10.618 L77.158,13.544 L79.02,13.544 L79.02,14.524 L77.158,14.524 L77.158,17.8 L79.412,17.8 L79.412,18.766 L70.396,18.766 L70.396,17.8 L72.594,17.8 L72.594,14.524 L70.788,14.524 L70.788,13.544 Z M73.63,17.8 L76.136,17.8 L76.136,14.524 L73.63,14.524 L73.63,17.8 Z M76.556,19.284 C77.732,20.6 78.628,21.762 79.258,22.742 L78.362,23.358 C77.718,22.294 76.836,21.104 75.73,19.788 L76.556,19.284 Z M73.014,19.382 L73.938,19.816 C73.21,21.188 72.342,22.378 71.348,23.386 L70.48,22.756 C71.46,21.818 72.314,20.698 73.014,19.382 Z M68.296,15.56 C67.834,16.176 67.33,16.778 66.77,17.352 L66.434,16.288 C67.96,14.58 69.066,12.634 69.766,10.45 L70.718,10.884 C70.354,11.976 69.892,13.012 69.332,13.978 L69.332,23.4 L68.296,23.4 L68.296,15.56 Z M83.122,21.818 L88.96,21.818 C89.828,19.83 90.584,17.38 91.228,14.44 L92.222,14.706 C91.634,17.366 90.92,19.746 90.052,21.818 L93.006,21.818 L93.006,22.798 L83.122,22.798 L83.122,21.818 Z M84.648,15.126 C85.208,16.61 85.712,18.332 86.16,20.264 L85.208,20.502 C84.83,18.738 84.354,17.03 83.766,15.406 L84.648,15.126 Z M87.35,14.132 C87.826,15.672 88.26,17.45 88.652,19.438 L87.686,19.662 C87.378,17.842 86.972,16.092 86.468,14.412 L87.35,14.132 Z M87.364,10.45 C87.63,10.884 87.882,11.374 88.106,11.906 L93.23,11.906 L93.23,12.886 L82.856,12.886 L82.856,16.008 C82.8,19.088 82.324,21.552 81.414,23.4 L80.588,22.658 C81.372,21.062 81.792,18.85 81.82,16.008 L81.82,11.906 L87.014,11.906 C86.79,11.458 86.538,11.038 86.258,10.646 L87.364,10.45 Z M101.77,18.458 L104.388,18.458 L104.388,16.736 L102.092,16.736 L101.896,15.896 C102.372,15.126 102.806,14.174 103.198,13.026 L101.798,13.026 L101.798,12.144 L103.464,12.144 C103.604,11.64 103.744,11.108 103.884,10.562 L104.78,10.772 C104.668,11.248 104.542,11.71 104.416,12.144 L107.09,12.144 L107.09,13.026 L104.136,13.026 C103.772,14.09 103.38,15.042 102.946,15.854 L104.388,15.854 L104.388,13.964 L105.326,13.964 L105.326,15.854 L106.964,15.854 L106.964,16.736 L105.326,16.736 L105.326,18.458 L107.356,18.458 L107.356,19.354 L105.326,19.354 L105.326,21.678 L104.388,21.678 L104.388,19.354 L101.77,19.354 L101.77,18.458 Z M99.81,10.856 C100.454,11.696 100.958,12.438 101.294,13.068 L100.538,13.6 C100.174,12.9 99.684,12.144 99.068,11.318 L99.81,10.856 Z M105.354,22.238 C106.082,22.238 106.782,22.224 107.44,22.21 L107.174,23.162 L105.284,23.162 C104.864,23.162 104.43,23.148 104.01,23.134 C103.366,23.12 102.792,23.036 102.302,22.882 C101.812,22.714 101.406,22.42 101.07,22.028 C100.888,21.818 100.734,21.72 100.608,21.72 C100.37,21.72 99.936,22.266 99.32,23.372 L98.718,22.616 C99.306,21.692 99.796,21.118 100.188,20.88 L100.188,16.162 L99.054,16.162 L99.054,15.266 L101.112,15.266 L101.112,20.922 C101.168,20.978 101.224,21.02 101.266,21.076 C101.546,21.44 101.91,21.72 102.344,21.93 C102.736,22.084 103.212,22.182 103.758,22.21 C104.29,22.224 104.822,22.238 105.354,22.238 Z M96.058,10.604 L97.024,10.8 C96.926,11.276 96.814,11.724 96.702,12.172 L98.816,12.172 L98.816,13.124 L96.408,13.124 C96.1,14.09 95.736,14.972 95.33,15.756 L94.532,15.252 C95.232,13.852 95.75,12.298 96.058,10.604 Z M95.75,14.958 L98.578,14.958 L98.578,15.868 L97.43,15.868 L97.43,17.618 L98.97,17.618 L98.97,18.556 L97.43,18.556 L97.43,21.818 C97.822,21.622 98.228,21.356 98.648,21.02 L98.816,21.888 C98.144,22.364 97.388,22.77 96.52,23.078 L96.142,22.238 C96.352,22.14 96.464,21.986 96.464,21.79 L96.464,18.556 L94.91,18.556 L94.91,17.618 L96.464,17.618 L96.464,15.868 L95.75,15.868 L95.75,14.958 Z M119.004,16.092 L119.004,18.836 L112.018,18.836 L112.018,19.802 L119.648,19.802 L119.648,23.4 L118.654,23.4 L118.654,22.812 L112.018,22.812 L112.018,23.386 L111.01,23.386 L111.01,16.092 L119.004,16.092 Z M112.018,21.916 L118.654,21.916 L118.654,20.614 L112.018,20.614 L112.018,21.916 Z M112.018,18.024 L118.024,18.024 L118.024,16.904 L112.018,16.904 L112.018,18.024 Z M120.936,14.398 L120.936,16.932 L119.956,16.932 L119.956,15.266 L110.044,15.266 L110.044,16.932 L109.064,16.932 L109.064,14.398 L114.608,14.398 C114.468,14.062 114.328,13.768 114.174,13.488 L115.154,13.32 L115.07,13.264 C115.742,12.424 116.218,11.514 116.526,10.506 L117.492,10.716 C117.394,11.01 117.296,11.29 117.184,11.57 L121.23,11.57 L121.23,12.452 L118.738,12.452 C119.032,12.844 119.27,13.208 119.438,13.544 L118.542,13.88 C118.29,13.376 117.996,12.9 117.66,12.452 L116.778,12.452 C116.526,12.928 116.232,13.376 115.924,13.796 L115.168,13.334 C115.322,13.656 115.476,14.006 115.616,14.398 L120.936,14.398 Z M110.744,12.452 C110.408,12.998 110.044,13.502 109.624,13.964 L108.742,13.404 C109.582,12.536 110.198,11.556 110.59,10.492 L111.556,10.702 C111.444,11.01 111.318,11.29 111.206,11.57 L114.958,11.57 L114.958,12.452 L112.606,12.452 C112.914,12.872 113.18,13.278 113.376,13.656 L112.452,14.006 C112.2,13.474 111.892,12.956 111.542,12.452 L110.744,12.452 Z M127.824,11.122 L134.67,11.122 L134.67,17.59 L131.758,17.59 L131.758,19.242 L134.908,19.242 L134.908,20.194 L131.758,20.194 L131.758,22.014 L135.426,22.014 L135.426,22.98 L126.998,22.98 L126.998,22.014 L130.75,22.014 L130.75,20.194 L127.586,20.194 L127.586,19.242 L130.75,19.242 L130.75,17.59 L127.824,17.59 L127.824,11.122 Z M133.704,16.694 L133.704,14.804 L131.758,14.804 L131.758,16.694 L133.704,16.694 Z M130.75,16.694 L130.75,14.804 L128.79,14.804 L128.79,16.694 L130.75,16.694 Z M128.79,13.922 L130.75,13.922 L130.75,12.018 L128.79,12.018 L128.79,13.922 Z M131.758,12.018 L131.758,13.922 L133.704,13.922 L133.704,12.018 L131.758,12.018 Z M122.882,15.756 L124.408,15.756 L124.408,12.438 L122.686,12.438 L122.686,11.486 L127.152,11.486 L127.152,12.438 L125.444,12.438 L125.444,15.756 L126.984,15.756 L126.984,16.722 L125.444,16.722 L125.444,19.9 C125.976,19.718 126.48,19.522 126.984,19.298 L126.984,20.278 C125.696,20.81 124.31,21.258 122.826,21.622 L122.574,20.656 C123.19,20.544 123.806,20.404 124.408,20.236 L124.408,16.722 L122.882,16.722 L122.882,15.756 Z M140.9,15.602 L140.9,17.128 L146.458,17.128 L146.458,15.602 L140.9,15.602 Z M146.458,18.01 L140.9,18.01 L140.9,19.494 L146.458,19.494 L146.458,18.01 Z M146.458,20.376 L140.9,20.376 L140.9,23.372 L139.948,23.372 L139.948,16.05 C139.164,17.03 138.254,17.94 137.246,18.752 L136.588,17.898 C138.352,16.498 139.71,14.902 140.676,13.096 L136.966,13.096 L136.966,12.116 L141.138,12.116 C141.376,11.57 141.586,11.024 141.754,10.478 L142.776,10.604 C142.608,11.122 142.44,11.626 142.244,12.116 L149.202,12.116 L149.202,13.096 L141.824,13.096 C141.544,13.656 141.25,14.202 140.914,14.72 L147.41,14.72 L147.41,22.28 C147.41,22.966 147.018,23.316 146.234,23.344 L144.666,23.344 L144.414,22.42 C144.946,22.448 145.45,22.476 145.912,22.476 C146.276,22.476 146.458,22.308 146.458,21.972 L146.458,20.376 Z M151.176,11.122 L155.474,11.122 L155.474,11.934 C155.054,13.194 154.55,14.496 153.962,15.868 C154.858,17.1 155.348,18.22 155.404,19.228 C155.404,19.83 155.25,20.264 154.97,20.53 C154.578,20.852 153.878,21.02 152.87,21.034 L152.534,20.012 C152.758,20.04 152.94,20.068 153.08,20.068 C153.598,20.04 153.948,19.97 154.13,19.858 C154.298,19.732 154.396,19.522 154.396,19.228 C154.396,18.276 153.906,17.198 152.926,16.022 C153.584,14.566 154.102,13.25 154.466,12.088 L152.156,12.088 L152.156,23.414 L151.176,23.414 L151.176,11.122 Z M157.126,14.622 L157.126,16.204 L161.256,16.204 L161.256,14.622 L157.126,14.622 Z M161.256,13.698 L161.256,12.088 L157.126,12.088 L157.126,13.698 L161.256,13.698 Z M158.736,17.128 L157.126,17.128 L157.126,21.916 C157.966,21.664 158.806,21.342 159.632,20.964 L159.856,21.902 C158.848,22.336 157.588,22.756 156.062,23.162 L155.824,22.294 C156.02,22.224 156.132,22.112 156.132,21.972 L156.132,11.136 L162.236,11.136 L162.236,17.128 L159.646,17.128 C159.814,17.954 160.094,18.724 160.5,19.424 C161.172,19.046 161.83,18.486 162.46,17.73 L163.118,18.388 C162.474,19.144 161.76,19.732 160.962,20.138 C161.606,21.02 162.446,21.776 163.51,22.406 L162.95,23.288 C160.626,21.804 159.212,19.746 158.736,17.128 Z M168.606,10.702 L169.53,11.066 C168.494,14.006 167.136,16.246 165.428,17.786 L164.644,17.1 C166.394,15.504 167.71,13.376 168.606,10.702 Z M173.38,18.122 C174.472,19.634 175.396,21.258 176.18,22.98 L175.242,23.4 C175.032,22.924 174.822,22.476 174.612,22.056 C172.148,22.448 169.39,22.728 166.338,22.924 L166.156,21.944 C167.276,21.356 168.676,19.144 170.37,15.308 L171.35,15.644 C170.146,18.304 168.942,20.39 167.738,21.902 C170.02,21.762 172.162,21.524 174.164,21.202 C173.618,20.194 173.058,19.27 172.47,18.43 L173.38,18.122 Z M173.17,10.604 C173.982,13.208 175.382,15.336 177.384,16.988 L176.67,17.814 C174.584,16.078 173.128,13.824 172.316,11.08 L173.17,10.604 Z M180.072,16.54 L186.246,16.54 L186.246,20.852 L180.072,20.852 L180.072,16.54 Z M185.28,19.956 L185.28,17.45 L181.052,17.45 L181.052,19.956 L185.28,19.956 Z M188.682,23.302 L186.75,23.302 L186.498,22.336 L188.458,22.364 C188.878,22.364 189.102,22.084 189.102,21.524 L189.102,12.13 L179.582,12.13 L179.582,11.15 L190.11,11.15 L190.11,21.804 C190.11,22.798 189.634,23.302 188.682,23.302 Z M179.022,13.908 L187.632,13.908 L187.632,14.818 L179.022,14.818 L179.022,13.908 Z" id="上海欣雅供应链管理有限公司" fill="#333333" fill-rule="nonzero"></path>
                    </g>
                </g>
            </g>
        </g>
    </g>
</svg>