<?xml version="1.0" standalone="no"?><!DOCTYPE svg PUBLIC "-//W3C//DTD SVG 1.1//EN" "http://www.w3.org/Graphics/SVG/1.1/DTD/svg11.dtd"><svg t="1555408832543" class="icon" style="" viewBox="0 0 1024 1024" version="1.1" xmlns="http://www.w3.org/2000/svg" p-id="1008" xmlns:xlink="http://www.w3.org/1999/xlink" width="200" height="200"><defs><style type="text/css"></style></defs><path d="M0 0h1024v1024H0z" fill="#439DF7" p-id="1009"></path><path d="M328.2432 312.43264l48.4864 6.68672 73.7792 208.85504-24.15616 53.68832zM315.26912 413.5424l-19.89632-80.14848-73.0624 248.2688 40.27392-10.73152z" fill="#FFFFFF" opacity=".683" p-id="1010"></path><path d="M288.4096 492.70784h46.96064l16.7936 40.28416h-77.06624z" fill="#FFFFFF" opacity=".683" p-id="1011"></path><path d="M249.32352 312.7296L153.6 581.66272h68.7104l27.91424-87.47008H329.728l28.50816 87.47008h68.10624L330.93632 312.7296h-81.6128z m40.4992 58.81856l33.01376 101.0688h-65.41312l32.39936-101.0688z" fill="#FFFFFF" p-id="1012"></path><path d="M485.49888 312.43264v247.66464l0.01024 21.56544h68.34176l0.06144-21.57568V312.43264z" fill="#FFFFFF" p-id="1013"></path><path d="M597.4528 320.14336V566.272l-43.60192 15.39072 0.06144-269.23008z" fill="#FFFFFF" fill-opacity=".68" p-id="1014"></path><path d="M752.2304 320.14336V562.7904l-43.60192 18.87232 0.06144-269.23008zM752.2304 510.1568v6.88128l64.1024-2.90816 38.74816-2.02752z" fill="#FFFFFF" fill-opacity=".68" p-id="1015"></path><path d="M855.00928 512.1024v61.91104l-38.68672 9.28768-1.04448-69.65248z" fill="#FFFFFF" fill-opacity=".68" p-id="1016"></path><path d="M712.8064 313.32352v200.8064h103.5264v67.5328H680.82688c-20.13184 0-36.4544-16.0768-36.4544-35.8912v-232.448h68.42368z" fill="#FFFFFF" p-id="1017"></path><path d="M212.54144 679.92576l-9.56416-24.2176-9.60512 24.2176h19.16928z m8.42752 21.48352l-6.11328-15.5648h-23.808l-6.18496 15.5648h-7.40352l22.28224-56.17664h7.89504l21.94432 56.17664h-8.61184z m17.11104 0v-56.17664h7.97696v50.21696h25.28256v5.95968H238.08z m41.8304 0v-56.17664h7.96672v50.21696h25.2928v5.95968h-33.25952z m66.7648 0v-56.17664h7.96672v56.17664h-7.97696z m22.80448 0v-56.17664h7.81312l28.28288 43.38688V645.2224h6.84032v56.17664h-7.7824l-28.32384-43.38688v43.38688h-6.83008z m82.78016 0v-56.17664h7.96672v50.21696h25.2928v5.95968h-33.25952z m61.41952 1.40288c-7.79264 0-14.06976-2.69312-18.81088-8.09984-4.74112-5.40672-7.1168-12.544-7.1168-21.43232 0-8.92928 2.38592-16.0768 7.15776-21.42208 4.77184-5.35552 11.14112-8.0384 19.10784-8.0384 7.94624 0 14.31552 2.67264 19.0976 8.01792 4.78208 5.33504 7.168 12.46208 7.168 21.37088 0 9.08288-2.38592 16.2816-7.168 21.61664-4.78208 5.3248-11.264 7.9872-19.43552 7.9872z m0.11264-5.95968c5.74464 0 10.1888-2.06848 13.32224-6.20544 3.14368-4.13696 4.7104-9.97376 4.7104-17.5104 0-7.3216-1.57696-13.03552-4.73088-17.16224-3.14368-4.12672-7.50592-6.1952-13.07648-6.1952-5.59104 0-9.95328 2.07872-13.09696 6.21568-3.13344 4.13696-4.7104 9.8816-4.7104 17.2544 0 7.33184 1.56672 13.1072 4.67968 17.3056 3.11296 4.1984 7.41376 6.2976 12.9024 6.2976z m80.24064 3.04128c-6.79936 1.9456-12.73856 2.9184-17.79712 2.9184-8.93952 0-15.79008-2.53952-20.56192-7.6288-4.77184-5.07904-7.14752-12.36992-7.14752-21.8624 0-9.3184 2.41664-16.55808 7.24992-21.72928 4.83328-5.18144 11.61216-7.77216 20.34688-7.77216 5.71392 0 11.66336 0.84992 17.83808 2.54976v7.36256c-7.74144-2.63168-13.68064-3.95264-17.80736-3.95264-6.07232 0-10.78272 2.06848-14.1312 6.1952-3.35872 4.12672-5.03808 9.9328-5.03808 17.41824 0 7.424 1.80224 13.17888 5.39648 17.29536 3.584 4.11648 8.62208 6.16448 15.104 6.16448 2.6624 0 5.5296-0.4608 8.62208-1.40288v-18.29888h7.92576v22.74304z m14.30528 1.51552v-56.17664h7.97696v56.17664h-7.97696z m33.82272 1.40288c-3.76832 0-8.6016-0.8192-14.46912-2.4576v-7.90528c6.32832 2.93888 11.53024 4.4032 15.60576 4.4032 3.14368 0 5.66272-0.8192 7.5776-2.4576a8.15104 8.15104 0 0 0 2.8672-6.49216 8.63232 8.63232 0 0 0-1.88416-5.632c-1.24928-1.536-3.56352-3.25632-6.92224-5.15072l-3.88096-2.2528c-4.78208-2.72384-8.15104-5.29408-10.11712-7.71072a13.0048 13.0048 0 0 1-2.93888-8.448c0-4.33152 1.56672-7.8848 4.7104-10.69056 3.13344-2.79552 7.13728-4.1984 11.99104-4.1984 4.33152 0 8.89856 0.7168 13.71136 2.17088v7.29088c-5.92896-2.33472-10.3424-3.50208-13.25056-3.50208-2.7648 0-5.03808 0.73728-6.84032 2.21184a7.168 7.168 0 0 0-0.7168 10.51648c1.32096 1.4336 3.71712 3.15392 7.20896 5.16096l4.02432 2.27328c4.864 2.7648 8.25344 5.36576 10.17856 7.82336 1.92512 2.4576 2.88768 5.39648 2.88768 8.83712 0 4.88448-1.80224 8.8064-5.41696 11.776-3.60448 2.95936-8.37632 4.43392-14.336 4.43392z m44.5952-1.40288v-50.21696H666.8288v-5.95968h47.83104v5.95968h-19.92704v50.21696h-7.97696z m36.13696 0v-56.17664h7.96672v56.17664h-7.96672z m46.87872 1.40288c-8.73472 0-15.48288-2.56-20.23424-7.68-4.7616-5.12-7.13728-12.3904-7.13728-21.77024 0-9.3696 2.41664-16.62976 7.2704-21.79072 4.84352-5.16096 11.6736-7.75168 20.48-7.75168 5.02784 0 10.92608 0.8192 17.68448 2.46784v7.4752c-7.69024-2.65216-13.6192-3.98336-17.80736-3.98336-6.0928 0-10.81344 2.06848-14.15168 6.1952-3.34848 4.12672-5.0176 9.94304-5.0176 17.4592 0 7.168 1.792 12.81024 5.35552 16.9472 3.57376 4.13696 8.43776 6.20544 14.61248 6.20544 5.3248 0 11.008-1.62816 17.09056-4.89472v6.84032a38.98368 38.98368 0 0 1-18.14528 4.28032z m41.10336 0c-3.76832 0-8.6016-0.8192-14.46912-2.4576v-7.90528c6.32832 2.93888 11.53024 4.4032 15.60576 4.4032 3.13344 0 5.66272-0.8192 7.5776-2.4576a8.15104 8.15104 0 0 0 2.8672-6.49216 8.63232 8.63232 0 0 0-1.88416-5.632c-1.24928-1.536-3.56352-3.25632-6.93248-5.15072l-3.87072-2.2528c-4.78208-2.72384-8.15104-5.29408-10.11712-7.71072a13.0048 13.0048 0 0 1-2.93888-8.448c0-4.33152 1.56672-7.8848 4.7104-10.69056 3.13344-2.79552 7.13728-4.1984 11.99104-4.1984 4.33152 0 8.89856 0.7168 13.70112 2.17088v7.29088c-5.91872-2.33472-10.3424-3.50208-13.24032-3.50208-2.7648 0-5.03808 0.73728-6.84032 2.21184a7.168 7.168 0 0 0-0.7168 10.51648c1.31072 1.4336 3.71712 3.15392 7.20896 5.16096l4.02432 2.27328c4.864 2.7648 8.25344 5.36576 10.17856 7.82336 1.92512 2.4576 2.88768 5.39648 2.88768 8.83712 0 4.88448-1.81248 8.8064-5.41696 11.776-3.60448 2.95936-8.37632 4.43392-14.336 4.43392z" fill="#FFFFFF" p-id="1018"></path></svg>